<svg version="1.1" id="Layer_1" xmlns="http://www.w3.org/2000/svg" xmlns:xlink="http://www.w3.org/1999/xlink" x="0px" y="0px"
	 width="100%" viewBox="0 0 300 277" enable-background="new 0 0 300 277" xml:space="preserve">
<path fill="#000000" opacity="1.000000" stroke="none" 
	d="
M60.000000,278.000000 
	C56.307091,278.000000 52.614182,278.000000 48.161083,277.703369 
	C52.460693,267.908325 57.424648,258.357361 62.600555,248.922684 
	C72.861603,230.218781 83.305397,211.615051 93.547958,192.901108 
	C101.398972,178.556732 109.020897,164.087158 116.810295,149.708817 
	C125.843849,133.033875 134.913986,116.378525 144.032913,99.750145 
	C153.541367,82.411469 163.200317,65.154587 172.573334,47.743420 
	C173.591461,45.852158 174.069290,42.750332 173.227951,40.939285 
	C169.847977,33.663593 165.770447,26.715815 162.105423,19.567530 
	C158.960876,13.434448 156.027023,7.193336 153.000000,1.000000 
	C202.281906,1.000000 251.563797,1.000000 301.000000,1.000000 
	C301.000000,91.354172 301.000000,181.708420 300.683594,272.796112 
	C297.627045,268.574524 294.871460,263.627991 292.149536,258.662994 
	C281.110626,238.527832 270.019562,218.420929 259.064941,198.239990 
	C243.955811,170.405548 228.968719,142.504852 213.866043,114.666885 
	C212.903870,112.893364 211.396896,111.415421 209.721848,109.256737 
	C206.247894,115.590431 203.092239,121.259972 200.014481,126.971497 
	C192.063217,141.727020 184.199295,156.529861 176.202744,171.260742 
	C165.484665,191.005127 154.691864,210.709030 143.897095,230.411667 
	C138.011017,241.154953 131.945511,251.801468 126.178490,262.607727 
	C123.516891,267.595062 121.376640,272.860596 119.000000,278.000000 
	C115.307091,278.000000 111.614182,278.000000 107.462265,277.623474 
	C108.011032,275.072052 108.893974,272.828583 110.045456,270.732666 
	C125.286461,242.991226 140.637589,215.310059 155.805252,187.528671 
	C163.871048,172.755173 171.570755,157.782242 179.554504,142.963333 
	C187.090012,128.976425 194.721603,115.040154 202.458191,101.163712 
	C203.868881,98.633476 204.060883,96.629288 202.614105,94.034134 
	C195.981354,82.136749 189.508514,70.149818 183.033035,58.165432 
	C181.475250,55.282410 180.083572,55.084061 178.459885,58.058445 
	C174.843002,64.684166 171.197037,71.294014 167.563614,77.910721 
	C158.045273,95.244270 148.483215,112.553993 139.019455,129.917297 
	C124.493179,156.568848 110.030891,183.255264 95.548561,209.930740 
	C84.368423,230.523804 73.171181,251.107712 62.071671,271.744171 
	C61.046810,273.649628 60.675026,275.906372 60.000000,278.000000 
z"/>
<path fill="#000000" opacity="1.000000" stroke="none" 
	d="
M0.999999,273.000000 
	C1.000000,182.427597 1.000000,91.855194 1.000000,1.000000 
	C50.353867,1.000000 99.708275,1.000000 149.529587,1.370672 
	C143.859207,13.137838 137.782486,24.567472 131.569901,35.922771 
	C123.041626,51.510658 114.384956,67.028244 105.829903,82.601547 
	C95.857536,100.754868 85.913910,118.924065 75.996605,137.107544 
	C61.480198,163.723526 46.966351,190.341019 32.512741,216.991135 
	C22.656517,235.164413 12.915944,253.400421 3.062567,271.575256 
	C2.707391,272.230377 1.702227,272.533051 0.999999,273.000000 
z"/>
<path fill="#FFFFFF" opacity="1.000000" stroke="none" 
	d="
M0.999999,273.499969 
	C1.702227,272.533051 2.707391,272.230377 3.062567,271.575256 
	C12.915944,253.400421 22.656517,235.164413 32.512741,216.991135 
	C46.966351,190.341019 61.480198,163.723526 75.996605,137.107544 
	C85.913910,118.924065 95.857536,100.754868 105.829903,82.601547 
	C114.384956,67.028244 123.041626,51.510658 131.569901,35.922771 
	C137.782486,24.567472 143.859207,13.137838 149.998245,1.370672 
	C150.750000,1.000000 151.500000,1.000000 152.625000,1.000000 
	C156.027023,7.193336 158.960876,13.434448 162.105423,19.567530 
	C165.770447,26.715815 169.847977,33.663593 173.227951,40.939285 
	C174.069290,42.750332 173.591461,45.852158 172.573334,47.743420 
	C163.200317,65.154587 153.541367,82.411469 144.032913,99.750145 
	C134.913986,116.378525 125.843849,133.033875 116.810295,149.708817 
	C109.020897,164.087158 101.398972,178.556732 93.547958,192.901108 
	C83.305397,211.615051 72.861603,230.218781 62.600555,248.922684 
	C57.424648,258.357361 52.460693,267.908325 47.700447,277.703369 
	C32.333324,278.000000 16.666645,278.000000 1.000000,278.000000 
	C1.000000,276.640717 1.000000,275.320312 0.999999,273.499969 
z"/>
<path fill="#EF3441" opacity="1.000000" stroke="none" 
	d="
M119.468658,278.000000 
	C121.376640,272.860596 123.516891,267.595062 126.178490,262.607727 
	C131.945511,251.801468 138.011017,241.154953 143.897095,230.411667 
	C154.691864,210.709030 165.484665,191.005127 176.202744,171.260742 
	C184.199295,156.529861 192.063217,141.727020 200.014481,126.971497 
	C203.092239,121.259972 206.247894,115.590431 209.721848,109.256737 
	C211.396896,111.415421 212.903870,112.893364 213.866043,114.666885 
	C228.968719,142.504852 243.955811,170.405548 259.064941,198.239990 
	C270.019562,218.420929 281.110626,238.527832 292.149536,258.662994 
	C294.871460,263.627991 297.627045,268.574524 300.683594,273.264771 
	C301.000000,274.655884 301.000000,276.311737 301.000000,278.000000 
	C280.312439,278.000000 259.624878,278.000000 238.468994,277.531342 
	C238.000687,262.153625 238.000687,247.244553 238.000687,232.326370 
	C219.024597,232.326370 200.660324,232.326370 182.000000,232.326370 
	C182.000000,247.767776 182.000000,262.883881 182.000000,278.000000 
	C161.312439,278.000000 140.624878,278.000000 119.468658,278.000000 
M178.147461,187.570984 
	C177.919220,187.569946 177.690964,187.568909 177.462723,187.567871 
	C177.636383,187.716644 177.810043,187.865402 177.834656,188.814255 
	C178.709534,191.938400 179.584427,195.062561 180.452637,198.162888 
	C178.358276,199.026138 176.763809,199.683334 174.554306,200.594040 
	C179.245224,204.282715 183.312134,207.675018 187.585617,210.783310 
	C191.406754,213.562592 195.319809,216.090439 192.077286,222.369339 
	C204.362564,216.621338 216.235199,217.197067 228.995850,222.272064 
	C224.006805,215.791534 229.140564,213.837708 232.368240,211.225830 
	C236.735184,207.692062 241.216888,204.300125 246.009491,200.566818 
	C243.612885,199.604080 241.835709,198.890167 239.936172,198.127090 
	C241.013214,194.444199 242.011292,191.031265 243.175430,187.050522 
	C239.034531,188.307861 235.638153,189.339127 232.216766,190.377975 
	C231.288101,188.205246 230.591934,186.576447 229.695755,184.479752 
	C226.474854,188.088516 223.555786,191.359116 219.865128,195.494186 
	C221.160645,187.251495 222.255920,180.282730 223.504074,172.341339 
	C220.323410,174.032837 218.670715,174.911743 216.800751,175.906219 
	C214.561371,171.603363 212.595627,167.826324 210.258591,163.335861 
	C207.844299,167.897278 205.778107,171.801010 203.663925,175.795425 
	C201.340958,174.773041 199.332077,173.888885 196.709717,172.734711 
	C197.967758,180.161240 199.091904,186.797302 200.216049,193.433365 
	C199.840561,193.516663 199.465088,193.599960 199.089615,193.683258 
	C196.348938,190.700226 193.608261,187.717209 190.682648,184.532883 
	C189.730515,186.811737 189.042862,188.457581 188.368225,190.072281 
	C184.767548,189.332687 181.410812,188.643204 178.147461,187.570984 
z"/>
<path fill="#FFFFFF" opacity="1.000000" stroke="none" 
	d="
M60.468658,278.000000 
	C60.675026,275.906372 61.046810,273.649628 62.071671,271.744171 
	C73.171181,251.107712 84.368423,230.523804 95.548561,209.930740 
	C110.030891,183.255264 124.493179,156.568848 139.019455,129.917297 
	C148.483215,112.553993 158.045273,95.244270 167.563614,77.910721 
	C171.197037,71.294014 174.843002,64.684166 178.459885,58.058445 
	C180.083572,55.084061 181.475250,55.282410 183.033035,58.165432 
	C189.508514,70.149818 195.981354,82.136749 202.614105,94.034134 
	C204.060883,96.629288 203.868881,98.633476 202.458191,101.163712 
	C194.721603,115.040154 187.090012,128.976425 179.554504,142.963333 
	C171.570755,157.782242 163.871048,172.755173 155.805252,187.528671 
	C140.637589,215.310059 125.286461,242.991226 110.045456,270.732666 
	C108.893974,272.828583 108.011032,275.072052 107.001633,277.623474 
	C91.645775,278.000000 76.291542,278.000000 60.468658,278.000000 
z"/>
<path fill="#000000" opacity="1.000000" stroke="none" 
	d="
M182.468658,278.000000 
	C182.000000,262.883881 182.000000,247.767776 182.000000,232.326370 
	C200.660324,232.326370 219.024597,232.326370 238.000687,232.326370 
	C238.000687,247.244553 238.000687,262.153625 238.000336,277.531342 
	C219.645767,278.000000 201.291550,278.000000 182.468658,278.000000 
z"/>
<path fill="#FFFAFB" opacity="1.000000" stroke="none" 
	d="
M178.054062,187.953720 
	C181.410812,188.643204 184.767548,189.332687 188.368225,190.072281 
	C189.042862,188.457581 189.730515,186.811737 190.682648,184.532883 
	C193.608261,187.717209 196.348938,190.700226 199.089615,193.683258 
	C199.465088,193.599960 199.840561,193.516663 200.216049,193.433365 
	C199.091904,186.797302 197.967758,180.161240 196.709717,172.734711 
	C199.332077,173.888885 201.340958,174.773041 203.663925,175.795425 
	C205.778107,171.801010 207.844299,167.897278 210.258591,163.335861 
	C212.595627,167.826324 214.561371,171.603363 216.800751,175.906219 
	C218.670715,174.911743 220.323410,174.032837 223.504074,172.341339 
	C222.255920,180.282730 221.160645,187.251495 219.865128,195.494186 
	C223.555786,191.359116 226.474854,188.088516 229.695755,184.479752 
	C230.591934,186.576447 231.288101,188.205246 232.216766,190.377975 
	C235.638153,189.339127 239.034531,188.307861 243.175430,187.050522 
	C242.011292,191.031265 241.013214,194.444199 239.936172,198.127090 
	C241.835709,198.890167 243.612885,199.604080 246.009491,200.566818 
	C241.216888,204.300125 236.735184,207.692062 232.368240,211.225830 
	C229.140564,213.837708 224.006805,215.791534 228.995850,222.272064 
	C216.235199,217.197067 204.362564,216.621338 192.077286,222.369339 
	C195.319809,216.090439 191.406754,213.562592 187.585617,210.783310 
	C183.312134,207.675018 179.245224,204.282715 174.554306,200.594040 
	C176.763809,199.683334 178.358276,199.026138 180.452637,198.162888 
	C179.584427,195.062561 178.709534,191.938400 177.926453,188.398956 
	C178.018265,187.983673 178.054062,187.953720 178.054062,187.953720 
z"/>
<path fill="#FFFAFB" opacity="1.000000" stroke="none" 
	d="
M178.000992,187.998917 
	C177.810043,187.865402 177.636383,187.716644 177.462723,187.567871 
	C177.690964,187.568909 177.919220,187.569946 178.100769,187.762360 
	C178.054062,187.953720 178.018265,187.983673 178.000992,187.998917 
z"/>
</svg>